<?xml version="1.0" encoding="UTF-8" standalone="no"?>
<!-- Created with Inkscape (http://www.inkscape.org/) -->

<svg
   xmlns:dc="http://purl.org/dc/elements/1.1/"
   xmlns:cc="http://creativecommons.org/ns#"
   xmlns:rdf="http://www.w3.org/1999/02/22-rdf-syntax-ns#"
   xmlns:svg="http://www.w3.org/2000/svg"
   xmlns="http://www.w3.org/2000/svg"
   xmlns:sodipodi="http://sodipodi.sourceforge.net/DTD/sodipodi-0.dtd"
   xmlns:inkscape="http://www.inkscape.org/namespaces/inkscape"
   width="214.49298mm"
   height="51.477257mm"
   viewBox="0 0 214.49298 51.477257"
   version="1.1"
   id="svg8"
   inkscape:version="0.92.2 5c3e80d, 2017-08-06"
   sodipodi:docname="logoVegitableWhite.svg">
  <defs
     id="defs2" />
  <sodipodi:namedview
     id="base"
     pagecolor="#ffffff"
     bordercolor="#666666"
     borderopacity="1.0"
     inkscape:pageopacity="0.0"
     inkscape:pageshadow="2"
     inkscape:zoom="1.4142136"
     inkscape:cx="378.19328"
     inkscape:cy="84.009741"
     inkscape:document-units="mm"
     inkscape:current-layer="layer1"
     showgrid="false"
     showguides="true"
     inkscape:guide-bbox="true"
     inkscape:window-width="1869"
     inkscape:window-height="986"
     inkscape:window-x="12"
     inkscape:window-y="16"
     inkscape:window-maximized="0"
     inkscape:snap-global="false"
     fit-margin-top="0"
     fit-margin-left="0"
     fit-margin-right="0"
     fit-margin-bottom="0" />
  <metadata
     id="metadata5">
    <rdf:RDF>
      <cc:Work
         rdf:about="">
        <dc:format>image/svg+xml</dc:format>
        <dc:type
           rdf:resource="http://purl.org/dc/dcmitype/StillImage" />
        <dc:title></dc:title>
      </cc:Work>
    </rdf:RDF>
  </metadata>
  <g
     inkscape:label="Layer 1"
     inkscape:groupmode="layer"
     id="layer1"
     transform="translate(-4.878512,-91.071917)">
    <g
       id="g984" />
    <g
       id="g1036"
       transform="matrix(1.0475113,0,0,1.0475113,-2.975469,-5.3068279)"
       style="stroke-width:0.95464367;fill:#fefefe;fill-opacity:1">
      <g
         id="g1027"
         style="stroke-width:0.95464367;fill:#fefefe;fill-opacity:1">
        <path
           inkscape:connector-curvature="0"
           id="path960"
           style="font-style:normal;font-variant:normal;font-weight:normal;font-stretch:normal;font-size:medium;line-height:1.25;font-family:'Fredoka One';-inkscape-font-specification:'Fredoka One, Normal';font-variant-ligatures:normal;font-variant-caps:normal;font-variant-numeric:normal;font-feature-settings:normal;text-align:start;letter-spacing:0px;word-spacing:0px;writing-mode:lr-tb;text-anchor:start;fill:#fefefe;fill-opacity:1;stroke:none;stroke-width:0.25258279"
           d="m 115.56126,112.8512 -3.18788,-0.19617 v 6.76811 q 0,1.3242 0.39235,1.91273 0.4414,0.58854 1.56942,0.58854 1.17706,0 1.7656,0.0981 0.63757,0.049 1.32419,0.44139 1.12802,0.63758 1.12802,3.28598 0,3.08979 -1.37324,3.77641 -0.73566,0.34331 -1.3242,0.4414 -0.53948,0.049 -1.61846,0.049 -5.10061,0 -7.74901,-2.30508 -2.64839,-2.30508 -2.64839,-7.79805 V 112.655 q -0.93184,0.14713 -2.01082,0.14713 -1.07897,0 -1.81464,-0.83376 -0.686614,-0.83375 -0.686614,-2.84457 0,-2.01082 0.245217,-2.89361 0.24522,-0.93185 0.686617,-1.3242 0.78471,-0.63758 1.96178,-0.63758 l 1.61846,0.19618 v -5.051568 q 0,-1.12802 0.049,-1.667508 0.0981,-0.539488 0.49045,-1.177064 0.63757,-1.226109 3.77641,-1.226109 3.33502,0 3.97259,1.814641 0.24523,0.784709 0.24523,2.501262 v 4.806346 q 2.15795,-0.19618 3.23692,-0.19618 1.12802,0 1.66751,0.0981 0.58853,0.0491 1.3242,0.4414 1.27515,0.63758 1.27515,3.77641 0,3.0898 -1.3242,3.77642 -0.73566,0.34331 -1.32419,0.4414 -0.53949,0.049 -1.66751,0.049 z" />
        <path
           inkscape:connector-curvature="0"
           id="path962"
           style="font-style:normal;font-variant:normal;font-weight:normal;font-stretch:normal;font-size:medium;line-height:1.25;font-family:'Fredoka One';-inkscape-font-specification:'Fredoka One, Normal';font-variant-ligatures:normal;font-variant-caps:normal;font-variant-numeric:normal;font-feature-settings:normal;text-align:start;letter-spacing:0px;word-spacing:0px;writing-mode:lr-tb;text-anchor:start;fill:#fefefe;fill-opacity:1;stroke:none;stroke-width:0.25258279"
           d="m 137.24181,106.91684 q 0.29427,-2.74649 3.87451,-2.74649 1.91273,0 2.84457,0.29427 0.93184,0.29427 1.27515,1.02993 0.39236,0.73567 0.4414,1.3242 0.0981,0.53949 0.0981,1.66751 v 17.16552 q 0,1.12802 -0.0981,1.71655 -0.049,0.53949 -0.39235,1.27515 -0.68662,1.27515 -3.38406,1.27515 -2.6484,0 -3.58024,-0.63757 -0.8828,-0.68662 -1.02993,-1.96178 -1.81464,2.59935 -6.0815,2.59935 -4.21781,0 -7.8471,-3.8745 -3.62928,-3.8745 -3.62928,-8.97511 0,-5.14966 3.62928,-8.97512 3.67833,-3.8745 8.04328,-3.8745 1.6675,0 3.04075,0.58853 1.37324,0.58853 1.91273,1.12802 0.53948,0.49044 0.88279,0.98089 z m -8.92607,10.20122 q 0,1.61846 1.27516,2.94266 1.27515,1.27515 3.08979,1.27515 1.81464,0 2.9917,-1.32419 1.22611,-1.3242 1.22611,-2.89362 0,-1.61846 -1.17706,-2.9917 -1.12802,-1.37325 -3.08979,-1.37325 -1.91273,0 -3.13884,1.37325 -1.17707,1.37324 -1.17707,2.9917 z" />
        <path
           inkscape:connector-curvature="0"
           id="path964"
           style="font-style:normal;font-variant:normal;font-weight:normal;font-stretch:normal;font-size:medium;line-height:1.25;font-family:'Fredoka One';-inkscape-font-specification:'Fredoka One, Normal';font-variant-ligatures:normal;font-variant-caps:normal;font-variant-numeric:normal;font-feature-settings:normal;text-align:start;letter-spacing:0px;word-spacing:0px;writing-mode:lr-tb;text-anchor:start;fill:#fefefe;fill-opacity:1;stroke:none;stroke-width:0.25258279"
           d="m 161.2125,104.2194 q 4.36495,0 7.99423,3.8745 3.67832,3.8745 3.67832,9.02416 0,5.10061 -3.62928,8.97512 -3.62928,3.82545 -7.79805,3.82545 -4.16877,0 -5.93436,-2.35412 -0.39236,2.40317 -4.21782,2.40317 -3.08979,0 -3.77641,-1.3242 -0.34331,-0.73566 -0.4414,-1.27515 -0.049,-0.58853 -0.049,-1.71655 V 96.372302 q 0,-1.12802 0.049,-1.667507 0.0981,-0.588533 0.4414,-1.275153 0.68662,-1.324198 3.82546,-1.324198 3.08979,0 3.72737,1.324198 0.39235,0.735665 0.4414,1.324197 0.0981,0.539488 0.0981,1.667508 v 10.201223 q 1.96178,-2.40317 5.59106,-2.40317 z m -4.3159,15.84132 q 1.22611,1.3242 3.04075,1.3242 1.81464,0 3.08979,-1.3242 1.27515,-1.3242 1.27515,-2.94266 0,-1.61846 -1.17706,-2.94266 -1.17707,-1.37324 -3.13884,-1.37324 -1.96177,0 -3.13884,1.37324 -1.12802,1.37324 -1.12802,2.99171 0,1.56941 1.17707,2.89361 z" />
        <path
           inkscape:connector-curvature="0"
           id="path966"
           style="font-style:normal;font-variant:normal;font-weight:normal;font-stretch:normal;font-size:medium;line-height:1.25;font-family:'Fredoka One';-inkscape-font-specification:'Fredoka One, Normal';font-variant-ligatures:normal;font-variant-caps:normal;font-variant-numeric:normal;font-feature-settings:normal;text-align:start;letter-spacing:0px;word-spacing:0px;writing-mode:lr-tb;text-anchor:start;fill:#fefefe;fill-opacity:1;stroke:none;stroke-width:0.25258279"
           d="m 173.94629,96.323258 q 0,-1.12802 0.049,-1.667508 0.0981,-0.588532 0.4414,-1.324197 0.68662,-1.324197 3.82546,-1.324197 2.9917,0 3.72737,1.324197 0.39235,0.735665 0.4414,1.324197 0.0981,0.588532 0.0981,1.716552 v 22.707528 q 0,1.7656 0.29426,2.25604 0.29427,0.4414 1.27516,0.4414 1.02993,0 1.37324,0.0981 0.34331,0.049 0.83375,0.39236 0.98089,0.63757 0.98089,3.48215 0,3.08979 -0.98089,3.77641 -1.27515,0.8828 -6.0815,0.29427 -3.77641,-0.49045 -4.90443,-2.50127 -1.37324,-2.40317 -1.37324,-7.65091 z" />
        <path
           inkscape:connector-curvature="0"
           id="path968"
           style="font-style:normal;font-variant:normal;font-weight:normal;font-stretch:normal;font-size:medium;line-height:1.25;font-family:'Fredoka One';-inkscape-font-specification:'Fredoka One, Normal';font-variant-ligatures:normal;font-variant-caps:normal;font-variant-numeric:normal;font-feature-settings:normal;text-align:start;letter-spacing:0px;word-spacing:0px;writing-mode:lr-tb;text-anchor:start;fill:#fefefe;fill-opacity:1;stroke:none;stroke-width:0.25258279"
           d="m 212.26211,114.02827 q 0,2.9917 -1.52038,4.46303 -1.47133,1.42229 -3.28597,1.42229 h -11.62351 q 0,1.37324 1.61847,2.30508 1.61846,0.93185 3.23692,0.93185 2.84457,0 4.46304,-0.58854 l 0.53949,-0.19617 q 1.17706,-0.53949 1.96177,-0.53949 1.56942,0 2.69744,2.20699 0.63757,1.3242 0.63757,2.25604 0,4.36495 -10.44644,4.36495 -3.62928,0 -6.47385,-1.22611 -2.79553,-1.27515 -4.36495,-3.33501 -3.0898,-3.9726 -3.0898,-8.87703 0,-6.17959 3.9726,-9.85791 4.02163,-3.72737 10.00504,-3.72737 6.81717,0 10.00505,4.80634 1.66751,2.55031 1.66751,5.59106 z m -10.34836,1.42228 q 1.86369,0 1.86369,-1.56942 0,-1.12802 -0.8828,-1.81464 -0.83376,-0.68662 -2.45222,-0.68662 -1.56942,0 -3.13884,1.3242 -1.56942,1.27515 -1.56942,2.74648 z" />
      </g>
      <path
         d="m 93.908203,93.75 c -0.930607,0 -1.612054,0.110612 -1.986328,0.240234 -0.371955,0.12882 -0.381362,0.206857 -0.375,0.195313 -0.156618,0.317956 -0.233734,0.569826 -0.267578,0.751953 -0.02206,0.275268 -0.04297,0.750001 -0.04297,1.435547 0,0.673547 0.01792,1.145766 0.04102,1.464844 0.0309,0.150244 0.119539,0.422239 0.271484,0.761718 0.04611,0.08757 0.06015,0.133304 0.355469,0.226563 0.374791,0.11835 1.046232,0.216797 1.955078,0.216797 0.94481,0 1.639827,-0.101211 2.005859,-0.216797 0.32397,-0.102307 0.295666,-0.140159 0.300782,-0.150391 a 1.6452075,1.6452075 0 0 1 0.01953,-0.03711 c 0.197137,-0.369687 0.250945,-0.615898 0.253906,-0.648438 a 1.6452075,1.6452075 0 0 1 0.01563,-0.121093 c 0.03716,-0.222924 0.07617,-0.742293 0.07617,-1.447266 0,-0.704973 -0.04325,-1.213478 -0.07227,-1.373047 a 1.6452075,1.6452075 0 0 1 -0.01953,-0.158203 c -0.0073,-0.08709 -0.06466,-0.332664 -0.253906,-0.6875 a 1.6452075,1.6452075 0 0 1 -0.03125,-0.06055 c 0.01302,0.02705 0.03306,-0.03146 -0.318359,-0.15625 C 95.484518,93.861537 94.82062,93.75 93.908203,93.75 Z m -43.642578,11.52539 c -3.647568,0 -6.504198,1.08088 -8.886719,3.28906 a 1.6452075,1.6452075 0 0 1 -0.002,0 c -2.311186,2.13999 -3.445312,4.88514 -3.445312,8.65235 0,2.92414 0.885675,5.47772 2.74414,7.86718 a 1.6452075,1.6452075 0 0 1 0.0098,0.0137 c 0.857078,1.12491 2.068918,2.06761 3.726562,2.82617 1.65914,0.71187 3.576757,1.08594 5.802735,1.08594 3.367565,0 5.81982,-0.38767 7.201172,-0.96485 1.381351,-0.57717 1.601562,-0.95719 1.601562,-1.75586 0,-0.2447 -0.119125,-0.79225 -0.46875,-1.52539 -0.601859,-1.16865 -0.949724,-1.29297 -1.222656,-1.29297 -0.14705,0 -0.616603,0.0887 -1.275391,0.39063 a 1.6452075,1.6452075 0 0 1 -0.121093,0.0488 l -0.539063,0.19726 a 1.6452075,1.6452075 0 0 1 -0.002,0.002 c -1.370376,0.49832 -3.015932,0.68554 -5.025391,0.68554 -1.394483,0 -2.773479,-0.41047 -4.058593,-1.15039 -1.382018,-0.79571 -2.441407,-2.17023 -2.441407,-3.73047 a 1.6452075,1.6452075 0 0 1 1.644531,-1.64453 h 11.623047 c 0.779532,0 1.403585,-0.24726 2.140625,-0.95898 l 0.002,-0.002 c 0.611931,-0.59328 1.019531,-1.56767 1.019531,-3.28125 0,-1.72225 -0.450863,-3.23266 -1.394531,-4.67968 l -0.002,-0.004 c -1.826792,-2.75184 -4.474622,-4.06836 -8.630859,-4.06836 z m -37.275391,0.0488 c -0.168833,0 -0.991611,0.21061 -2.111328,0.85742 -1.4441022,0.86463 -1.7363279,1.48035 -1.7363279,1.86328 0,0.16505 0.1686043,0.84852 0.7421875,1.79492 a 1.6452075,1.6452075 0 0 1 0.013672,0.0234 l 10.1367184,17.34766 0.361328,0.44336 a 1.6452075,1.6452075 0 0 1 0.05469,0.0723 c 0.0469,0.0645 0.323121,0.31393 0.769531,0.58399 0.430874,0.20899 0.823538,0.30664 1.236328,0.30664 0.388976,0 0.795915,-0.11069 1.294922,-0.40039 0.537365,-0.34749 0.855165,-0.67993 1.011719,-0.94532 l 10.144531,-17.39453 0.002,-0.006 c 0.582582,-1.02216 0.761719,-1.76903 0.761719,-1.875 0,-0.32921 -0.281379,-0.94986 -1.748047,-1.82421 a 1.6452075,1.6452075 0 0 1 -0.0039,-0.002 c -1.02668,-0.61601 -1.775599,-0.79687 -1.851563,-0.79687 -0.407155,0 -0.539467,0.0814 -0.582031,0.11328 a 1.6452075,1.6452075 0 0 1 -0.07422,0.0527 c -0.259155,0.17278 -0.382815,0.31392 -0.423828,0.375 -2e-4,3e-4 -0.0018,0.002 -0.002,0.002 -0.142981,0.23007 -0.384906,0.63998 -0.724609,1.22656 -0.0027,0.005 -0.0031,0.005 -0.0059,0.01 l -6.388671,12.29297 a 1.6452075,1.6452075 0 0 1 -2.917969,0.002 l -6.425781,-12.35938 a 1.6452075,1.6452075 0 0 1 -0.002,-0.002 c -0.411426,-0.79346 -0.795383,-1.32273 -1.027343,-1.55469 a 1.6452075,1.6452075 0 0 1 -0.08399,-0.0937 c -0.06934,-0.0809 -0.05089,-0.11328 -0.419922,-0.11328 z m 70.716797,0.39258 c -1.063682,0 -1.601548,0.23827 -1.742187,0.35547 a 1.6452075,1.6452075 0 0 1 -0.0078,0.006 c -0.177905,0.14652 -0.324472,0.34741 -0.390625,0.96485 A 1.6452075,1.6452075 0 0 1 78.5625,107.7793 c -0.09426,-0.1414 -0.283701,-0.36463 -0.572266,-0.62696 a 1.6452075,1.6452075 0 0 1 -0.109375,-0.10937 c -0.01254,-0.0138 -0.480698,-0.3737 -1.294921,-0.72266 a 1.6452075,1.6452075 0 0 1 -0.04492,-0.0195 c -0.685691,-0.31835 -1.446727,-0.48633 -2.347657,-0.48633 -2.358896,0 -4.491912,0.98279 -6.654297,3.26367 -2.137221,2.25433 -3.128906,4.70581 -3.128906,7.64844 0,2.94494 0.981544,5.39519 3.083985,7.64649 2.167235,2.25212 4.245736,3.21484 6.453125,3.21484 2.383086,0 3.731796,-0.62943 4.625,-1.80469 a 1.6452075,1.6452075 0 0 1 2.955078,0.9961 v 1.47265 c 1e-6,1.68712 -0.518724,3.28562 -1.53711,4.5586 -1.049606,1.31201 -2.651359,2.08789 -4.326172,2.08789 -2.193182,0 -4.289308,-0.7578 -6.103515,-2.15625 a 1.6452075,1.6452075 0 0 1 -0.02344,-0.0176 c -0.297244,-0.23779 -0.409941,-0.23047 -0.394531,-0.23047 -0.130769,0 -0.163268,0.0188 -0.236328,0.0703 -0.184056,0.15178 -0.613612,0.56647 -1.191406,1.20508 a 1.6452075,1.6452075 0 0 1 -0.05664,0.0606 c -0.72987,0.72986 -0.992187,1.36653 -0.992187,2.21875 0,-0.14056 -0.04053,-6e-5 0.347656,0.37695 0.388181,0.37701 1.123623,0.89988 2.169922,1.46094 2.034312,1.09086 4.115945,1.61914 6.333984,1.61914 2.880204,0 5.375115,-0.97279 7.736328,-3.06836 a 1.6452075,1.6452075 0 0 1 0.0078,-0.008 c 2.279577,-1.99463 3.363281,-4.45741 3.363281,-7.83594 v -20.30273 c 0,-0.70497 -0.04324,-1.21343 -0.07227,-1.37305 a 1.6452075,1.6452075 0 0 1 -0.01953,-0.14649 c -0.0026,-0.0285 -0.04656,-0.23674 -0.230469,-0.55859 a 1.6452075,1.6452075 0 0 1 -0.0625,-0.12109 c -0.03533,-0.0757 0.0045,-0.0773 -0.255859,-0.16407 -0.250713,-0.0836 -1.087111,-0.21093 -2.277344,-0.21093 z m 10.201172,0.14648 c -0.934834,0 -1.622884,0.10727 -2.003906,0.23438 -0.366454,0.12224 -0.373015,0.193 -0.357422,0.16796 -0.1465,0.32974 -0.234564,0.60454 -0.267578,0.78321 -0.0221,0.275 -0.04297,0.75101 -0.04297,1.4375 v 17.21484 c 0,0.71123 0.02145,1.19314 0.04297,1.46875 0.03154,0.15245 0.11817,0.42474 0.273437,0.76953 -0.0023,-0.002 0.0062,0.0701 0.363282,0.19532 0.364631,0.12791 1.030939,0.23828 1.943359,0.23828 0.93483,0 1.620316,-0.10819 1.988281,-0.23243 0.367965,-0.12423 0.347478,-0.193 0.31836,-0.13476 a 1.6452075,1.6452075 0 0 1 0.01953,-0.0371 c 0.196282,-0.36808 0.250896,-0.61731 0.253906,-0.65039 a 1.6452075,1.6452075 0 0 1 0.01563,-0.12109 c 0.03716,-0.22294 0.07617,-0.7423 0.07617,-1.44727 v -17.16602 c 0,-0.59269 -0.01864,-1.03384 -0.04102,-1.25781 a 1.6452075,1.6452075 0 0 1 -0.0078,-0.10742 c -0.02194,-0.63643 -0.145827,-0.78335 -0.283203,-0.89648 a 1.6452075,1.6452075 0 0 1 -0.01953,-0.0156 c -0.158671,-0.13487 -0.896441,-0.44336 -2.271485,-0.44336 z m -43.791015,3.8711 c 1.304603,0 2.522146,0.27394 3.478515,1.05273 0.921523,0.72722 1.501953,1.92089 1.501953,3.09375 0,0.84851 -0.327177,1.82548 -1.050781,2.43555 -0.723604,0.61006 -1.604527,0.77929 -2.457031,0.77929 h -6.179688 a 1.6452075,1.6452075 0 0 1 -1.644531,-1.64453 c 0,-1.56012 0.884192,-2.97019 2.166016,-4.01562 1.24963,-1.05043 2.681942,-1.70118 4.185547,-1.70117 z m 25.302734,1.1289 c 1.663411,0 3.258871,0.70231 4.300781,1.96289 0.955206,1.12609 1.511719,2.51459 1.511719,3.94922 0,1.43883 -0.600039,2.82177 -1.591797,3.9375 a 1.6452075,1.6452075 0 0 1 -0.02148,0.0215 c -1.069697,1.15885 -2.603925,1.80468 -4.199219,1.80468 -1.573306,0 -3.086523,-0.63729 -4.205078,-1.75586 a 1.6452075,1.6452075 0 0 1 -0.02148,-0.0234 c -1.050536,-1.09256 -1.685547,-2.50923 -1.685547,-3.98438 0,-1.47845 0.586017,-2.9056 1.591797,-4.03711 1.078679,-1.21351 2.665517,-1.875 4.320313,-1.875 z m 14.172815,-2.37699 q 0,-1.12802 0.04905,-1.66751 0.09809,-0.58853 0.441399,-1.3242 0.68662,-1.27515 3.825459,-1.27515 2.354119,0 3.334993,0.83375 0.833754,0.68662 0.882794,2.10891 0.049,0.49044 0.049,1.42228 v 17.16553 q 0,1.12802 -0.0981,1.71655 -0.0491,0.53949 -0.441397,1.27515 -0.637577,1.27515 -3.776405,1.27515 -3.089794,0 -3.776414,-1.32419 -0.343311,-0.73567 -0.441399,-1.27516 -0.04905,-0.53948 -0.04905,-1.71655 z m 8.043258,-9.073208 q -0.343307,0.686618 -1.275154,0.980888 -0.931834,0.29426 -2.501246,0.29426 -1.520374,0 -2.452217,-0.29426 -0.931843,-0.29427 -1.324197,-1.029933 -0.343311,-0.735665 -0.441399,-1.275153 -0.04905,-0.588532 -0.04905,-1.716552 0,-1.12802 0.04905,-1.667507 0.09809,-0.588533 0.441399,-1.275153 0.68662,-1.324198 3.825459,-1.324198 3.089778,0 3.727355,1.324198 0.392347,0.735665 0.441397,1.324197 0.0981,0.539488 0.0981,1.667508 0,1.12802 -0.0981,1.716552 -0.0491,0.539488 -0.441397,1.275153 z M 79.88246,126.7798 q -1.863685,2.45221 -5.934365,2.45221 -4.070681,0 -7.650918,-3.72737 -3.531193,-3.77641 -3.531193,-8.77893 0,-5.00253 3.580237,-8.77894 3.580237,-3.77642 7.847095,-3.77642 1.667508,0 3.04075,0.63758 1.373241,0.58853 1.863685,1.12802 0.539488,0.49044 0.833754,0.93184 0.147133,-1.37324 0.980887,-2.05986 0.882798,-0.73567 2.795527,-0.73567 1.91273,0 2.795528,0.29427 0.882798,0.29427 1.226109,1.02993 0.392355,0.68662 0.441399,1.22611 0.09809,0.53949 0.09809,1.66751 v 20.30436 q 0,5.6401 -3.923548,9.0732 -3.923548,3.48215 -8.827982,3.48215 -3.727371,0 -7.11143,-1.81464 -3.38406,-1.81464 -3.38406,-3.28597 0,-1.91273 1.47133,-3.38406 0.931843,-1.02993 1.422286,-1.42229 0.539488,-0.39235 1.226109,-0.39235 0.686621,0 1.422286,0.58853 2.354128,1.81464 5.100612,1.81464 1.863685,0 3.040749,-1.47133 1.177064,-1.47133 1.177064,-3.53119 z m -8.729893,-10.00505 q 0,1.56942 1.226109,2.84457 1.275153,1.27516 3.040749,1.27516 1.814641,0 2.991705,-1.27516 1.177064,-1.3242 1.177064,-2.84457 0,-1.56942 -1.12802,-2.89362 -1.12802,-1.37324 -3.040749,-1.37324 -1.912729,0 -3.089794,1.3242 -1.177064,1.3242 -1.177064,2.94266 z m -9.21528,-2.74648 q 0,2.9917 -1.520375,4.46303 -1.47133,1.42229 -3.285971,1.42229 h -11.62351 q 0,1.37324 1.618463,2.30508 1.618464,0.93185 3.236927,0.93185 2.844572,0 4.463036,-0.58854 l 0.539487,-0.19617 q 1.177065,-0.53949 1.961774,-0.53949 1.569419,0 2.697439,2.20699 0.637577,1.3242 0.637577,2.25604 0,4.36495 -10.446446,4.36495 -3.629282,0 -6.473854,-1.22611 -2.795527,-1.27515 -4.364946,-3.33501 -3.089794,-3.9726 -3.089794,-8.87703 0,-6.17959 3.972592,-9.85791 4.021636,-3.72737 10.005046,-3.72737 6.817164,0 10.005047,4.80634 1.667508,2.55031 1.667508,5.59106 z m -10.348357,1.42228 q 1.863685,0 1.863685,-1.56942 0,-1.12802 -0.882798,-1.81464 -0.833754,-0.68662 -2.452218,-0.68662 -1.569419,0 -3.138838,1.3242 -1.569419,1.27515 -1.569419,2.74648 z M 34.766409,104.75889 q 2.550306,1.52037 2.550306,3.23692 0,0.98089 -0.980887,2.69744 l -10.152179,17.41074 q -0.490444,0.83376 -1.569419,1.52038 -1.078976,0.63758 -2.157952,0.63758 -1.029931,0 -2.010818,-0.49045 -0.931842,-0.53949 -1.324197,-1.07897 L 18.679864,128.15304 8.4786399,110.69325 q -0.9808869,-1.61846 -0.9808869,-2.64839 0,-1.7656 2.550306,-3.28597 1.863685,-1.07898 2.942661,-1.07898 1.078975,0 1.667508,0.68662 0.637576,0.63758 1.324197,1.96177 l 6.424809,12.35918 6.424809,-12.35918 q 0.539488,-0.93184 0.78471,-1.32419 0.294266,-0.4414 0.882798,-0.83376 0.588532,-0.4414 1.569419,-0.4414 0.980887,0 2.697439,1.02994 z"
         style="font-style:normal;font-variant:normal;font-weight:normal;font-stretch:normal;font-size:medium;line-height:1.25;font-family:'Fredoka One';-inkscape-font-specification:'Fredoka One, Normal';font-variant-ligatures:normal;font-variant-caps:normal;font-variant-numeric:normal;font-feature-settings:normal;text-align:start;letter-spacing:0px;word-spacing:0px;writing-mode:lr-tb;text-anchor:start;fill:#fefefe;fill-opacity:1;stroke:none;stroke-width:0.25258279"
         id="path992"
         inkscape:connector-curvature="0" />
    </g>
  </g>
</svg>
